# xmcd CD database file
#
# Track frame offsets:
#	150
#	11790
#	26300
#	40720
#	55245
#	69303
#	80073
#	95042
#	109393
#	124245
#	140545
#	153850
#	160693
#	176403
#	190725
#	205878
#	219230
#
# Disc length: 3130 seconds
#
# Revision: 2
# Processed by: cddbd v1.5.2PL0 Copyright (c) Steve Scherf et al.
# Submitted via: CDex 1.70beta2
#
DISCID=e30c3811
DTITLE=Various Artist - Jake Leg Blues
DYEAR=1977
DGENRE=Blues
TTITLE0=Allen Brothers - Jake Walk Blues
TTITLE1=Asa Martin - Jake Walk Papa
TTITLE2=Lemuel Turner - Jake Bottle Blues
TTITLE3=Dave McCarn and Howard Long - Bay Rum Blues
TTITLE4=Willie Lofton - Jake Leg Blues
TTITLE5=Gene Autry - Bear Cat Papa Blues
TTITLE6=Narmour and Smith - Limber Neck Blues
TTITLE7=Mississippi Sheiks - The Jake Leg Blues
TTITLE8=Narmour and Smith - Jake Leg Rag
TTITLE9=Maynard Britton - Jake Leg Blues
TTITLE10=Ray Brothers - Jake Leg Wobble
TTITLE11=Maynard Britton - Jake Walk Blues
TTITLE12=Black Ace - Beer Drinkin' Woman
TTITLE13=Byrd Moore - Jake Legs Blues
TTITLE14=Tommy Johnson - Alcohol and Jake Blues
TTITLE15=Ray Brothers - Got The Jake Leg Too
TTITLE16=Ishman Bracey - Jake Liquor Blues
EXTD=YEAR: 1977
EXTT0=
EXTT1=
EXTT2=
EXTT3=
EXTT4=
EXTT5=
EXTT6=
EXTT7=
EXTT8=
EXTT9=
EXTT10=
EXTT11=
EXTT12=
EXTT13=
EXTT14=
EXTT15=
EXTT16=
PLAYORDER=
